<?xml version="1.0" standalone="no"?>
<!DOCTYPE svg PUBLIC "-//W3C//DTD SVG 20010904//EN"
 "http://www.w3.org/TR/2001/REC-SVG-20010904/DTD/svg10.dtd">
<svg version="1.0" xmlns="http://www.w3.org/2000/svg"
 width="1080.000000pt" height="586.000000pt" viewBox="0 0 1080.000000 586.000000"
 preserveAspectRatio="xMidYMid meet">

<g transform="translate(0.000000,586.000000) scale(0.100000,-0.100000)"
fill="#000000" stroke="none">
<path d="M7352 5358 c5 -15 28 -23 28 -10 0 5 -7 13 -16 16 -10 4 -14 1 -12
-6z"/>
<path d="M7220 5321 c-79 -30 -145 -63 -153 -77 -4 -8 -13 -14 -19 -14 -7 0
-27 -10 -45 -22 -26 -17 -33 -29 -30 -46 2 -12 0 -25 -4 -28 -5 -3 -9 0 -9 5
0 6 -7 11 -15 11 -14 0 -19 -11 -16 -37 1 -7 -5 -10 -13 -7 -43 16 -259 -280
-240 -330 3 -9 -4 -25 -18 -39 -13 -13 -24 -32 -25 -43 -1 -16 -40 -134 -60
-184 -3 -8 -5 -19 -4 -24 1 -6 -5 -28 -13 -50 -17 -46 -16 -136 5 -281 10 -70
10 -112 1 -194 -13 -111 -21 -132 -46 -112 -8 7 -39 15 -70 18 l-55 6 -17 -36
c-17 -35 -16 -38 6 -99 31 -87 65 -142 111 -182 44 -37 55 -66 70 -176 27
-210 39 -269 63 -339 9 -24 16 -50 16 -58 0 -8 15 -34 34 -59 19 -25 42 -69
52 -97 9 -29 25 -63 35 -77 34 -50 69 -139 75 -196 7 -53 6 -58 -9 -46 -13 11
-20 11 -40 -2 -13 -9 -59 -27 -103 -40 -138 -43 -286 -104 -314 -131 -15 -14
-55 -87 -90 -163 -125 -270 -232 -489 -329 -671 -55 -102 -116 -233 -136 -291
-127 -358 -118 -326 -123 -453 -4 -122 6 -188 36 -237 46 -74 82 -151 82 -176
0 -16 9 -62 20 -103 12 -46 20 -107 20 -158 l0 -83 2470 0 2470 0 0 1090 c0
1056 -1 1091 -19 1109 -66 66 -240 140 -461 197 -213 55 -277 73 -302 83 -32
13 -192 61 -204 61 -5 0 -68 18 -139 40 -72 23 -168 53 -215 67 -83 26 -134
59 -145 93 -3 10 -27 29 -54 43 l-48 27 -6 -113 c-6 -129 -46 -356 -83 -470
-47 -148 -120 -290 -262 -507 -41 -63 -86 -135 -99 -160 -65 -121 -89 -150
-125 -150 -25 0 -23 25 8 90 33 71 42 155 21 197 -19 36 -82 93 -103 93 -13 0
-15 -15 -9 -112 l7 -113 -29 -36 c-59 -75 -120 -133 -203 -195 -47 -35 -89
-67 -95 -71 -9 -7 -36 -18 -140 -57 -17 -6 -55 -29 -85 -51 -130 -97 -194
-135 -223 -135 -8 0 -20 6 -26 14 -26 31 104 128 227 168 100 33 211 85 243
115 26 24 27 28 22 108 -3 45 -3 94 0 107 8 29 61 113 98 153 15 17 54 68 87
115 33 47 78 110 101 140 71 94 172 264 264 445 66 129 217 445 217 454 0 16
-30 41 -51 41 -11 0 -19 -7 -19 -16 0 -9 -7 -28 -15 -42 -8 -15 -28 -78 -45
-141 -16 -63 -41 -131 -55 -152 -14 -21 -25 -42 -25 -45 0 -7 -50 -70 -97
-120 -15 -16 -42 -46 -59 -66 -18 -20 -41 -41 -53 -47 -11 -7 -21 -17 -21 -23
0 -6 -16 -29 -36 -52 -19 -22 -39 -45 -43 -51 -28 -33 -136 -125 -148 -125
-18 0 -61 -31 -118 -86 -32 -30 -45 -51 -50 -82 -4 -23 -14 -51 -23 -62 -16
-19 -22 -20 -76 -12 -56 9 -59 8 -92 -21 -31 -26 -40 -29 -79 -24 l-44 6 -30
-53 c-17 -29 -31 -68 -31 -85 0 -24 -4 -31 -20 -31 -11 0 -20 5 -20 10 0 6
-15 10 -34 10 -38 0 -40 2 -50 43 -6 24 -4 27 21 27 23 0 28 5 29 25 2 21 -2
25 -27 25 -19 0 -29 -5 -29 -15 0 -8 -2 -15 -5 -15 -13 0 -55 24 -55 32 0 5
-4 7 -9 3 -6 -3 -13 1 -18 8 -10 17 -171 32 -193 17 -13 -8 -13 -14 -1 -42 7
-18 16 -50 21 -71 4 -21 15 -46 24 -56 9 -9 16 -21 16 -26 0 -5 7 -15 16 -24
17 -17 102 -109 220 -237 66 -73 87 -104 67 -104 -3 0 -21 11 -40 26 -32 24
-61 25 -46 1 12 -19 9 -58 -4 -69 -10 -8 -23 -3 -51 21 -20 17 -49 40 -64 49
-15 9 -33 29 -39 44 -6 15 -19 30 -29 33 -29 9 -58 39 -65 68 -9 35 1 34 69
-4 31 -16 56 -25 56 -19 0 6 -34 44 -74 85 -79 78 -113 95 -194 95 -57 0 -85
18 -152 96 -70 82 -92 131 -93 208 -1 67 24 132 48 122 7 -2 16 -2 20 2 4 4
12 7 18 7 6 0 14 15 18 32 7 38 27 65 40 57 12 -7 11 -61 -1 -69 -18 -11 -11
-35 10 -35 11 0 20 -4 20 -10 0 -19 29 -10 32 10 2 12 17 30 35 41 l32 20 -6
-52 c-4 -37 -3 -50 5 -45 6 4 25 -8 43 -26 32 -33 32 -33 27 -7 l-5 26 44 -21
c23 -12 43 -27 43 -33 0 -7 4 -13 10 -13 5 0 9 8 8 18 -3 40 3 62 17 62 8 0
15 -5 15 -11 0 -5 4 -8 10 -4 5 3 17 -6 26 -20 12 -19 24 -25 43 -23 14 1 32
-1 39 -6 22 -14 26 24 4 47 -12 12 -28 47 -36 77 -12 46 -12 58 -1 76 10 16
11 24 2 33 -15 15 -34 14 -41 -4 -3 -8 -12 -15 -21 -15 -10 0 -17 -14 -21 -40
-4 -26 -16 -48 -34 -63 -15 -13 -30 -30 -33 -38 -3 -8 -3 13 0 46 3 33 9 64
14 70 11 11 12 45 2 45 -5 0 -19 -9 -33 -20 -14 -11 -28 -20 -32 -20 -16 0 -7
30 19 60 l26 32 -21 44 c-12 25 -22 60 -22 79 0 24 -5 35 -15 35 -8 0 -15 7
-15 15 0 9 6 12 16 8 14 -5 16 -1 12 21 -3 14 -1 29 3 32 5 3 3 15 -5 26 -12
17 -13 26 -4 42 7 12 12 35 12 51 1 37 27 41 37 5 4 -15 7 -18 8 -8 1 10 10
22 21 28 15 8 21 6 29 -9 6 -10 7 -22 3 -27 -4 -5 2 -1 14 9 11 9 24 17 28 17
4 0 15 9 24 20 10 11 27 22 40 25 54 10 57 35 4 35 -21 0 -43 5 -49 11 -8 8
-13 6 -17 -9 -9 -26 -32 -35 -58 -21 -11 6 -41 12 -68 13 -58 3 -80 19 -80 57
0 26 -2 27 -36 22 -33 -5 -36 -4 -34 18 4 45 -10 69 -40 69 -24 0 -27 3 -22
25 2 14 11 26 18 26 44 4 74 29 74 61 0 15 4 29 10 33 13 8 2 35 -30 70 -14
17 -32 42 -38 58 -10 22 -16 26 -36 21 -22 -5 -27 0 -51 50 -15 31 -30 56 -35
56 -9 0 -26 43 -34 87 -4 23 -1 35 10 41 8 4 16 18 18 29 3 12 13 30 24 41 12
12 23 41 27 73 4 30 14 67 22 82 7 15 11 31 9 36 -3 5 3 27 14 49 11 23 20 51
20 64 0 35 27 158 38 171 9 12 18 142 14 220 -2 30 -7 39 -27 47 -18 7 -25 17
-25 36 0 24 -3 26 -30 22 -16 -3 -30 -1 -30 4 0 14 -62 68 -72 62 -20 -13 -6
-43 30 -61 20 -11 46 -33 58 -50 27 -40 30 -110 6 -142 -18 -22 -20 -23 -44
-7 -13 9 -27 14 -30 11 -3 -3 -5 26 -4 65 0 69 -8 89 -38 90 -11 0 3 -54 15
-58 12 -5 12 -42 -1 -42 -5 0 -14 9 -20 20 -6 11 -19 20 -29 20 -26 0 -71 38
-71 61 0 10 7 19 15 19 22 0 18 15 -16 63 l-30 42 23 6 c41 12 105 9 173 -6
37 -9 88 -15 113 -14 76 4 87 -9 88 -103 1 -45 9 -97 18 -121 15 -40 18 -42
56 -42 43 0 52 13 20 32 -25 16 -44 82 -36 125 8 42 106 168 151 194 31 18 7
36 -30 24 -17 -5 -59 -17 -95 -26 -37 -9 -70 -24 -78 -35 -16 -24 -99 -26
-128 -4 -10 8 -30 15 -44 15 l-25 1 24 10 c18 7 21 12 12 23 -16 19 -3 26 53
27 48 0 113 17 75 18 -26 1 -51 38 -54 80 -4 48 -12 64 -31 57 -10 -4 -14 4
-14 30 0 22 -4 33 -10 29 -6 -4 -33 -4 -60 0 -35 5 -53 13 -64 30 -13 20 -13
24 -1 29 8 3 23 -4 34 -15 l18 -20 7 23 c3 13 6 35 6 50 0 15 4 29 9 32 10 7
21 55 24 109 1 27 10 44 31 62 26 23 28 27 17 49 -25 46 25 129 84 140 34 7
35 8 35 51 0 37 3 45 18 45 11 0 29 9 41 19 19 16 22 26 16 52 -4 18 -16 41
-26 53 -13 13 -16 23 -9 30 19 19 10 35 -30 47 -21 7 -37 16 -34 20 8 14 -38
9 -86 -10z m110 -91 c0 -5 -5 -10 -11 -10 -5 0 -7 5 -4 10 3 6 8 10 11 10 2 0
4 -4 4 -10z m10 -49 c0 -11 -4 -23 -10 -26 -6 -4 -10 5 -10 19 0 14 5 26 10
26 6 0 10 -9 10 -19z m-10 -51 c0 -5 -2 -10 -4 -10 -3 0 -8 5 -11 10 -3 6 -1
10 4 10 6 0 11 -4 11 -10z m-350 -474 c0 -11 -19 -15 -25 -6 -3 5 1 10 9 10 9
0 16 -2 16 -4z m74 -145 c3 -5 0 -20 -7 -32 -14 -29 -57 -28 -57 0 0 25 53 51
64 32z m87 -85 c-6 -8 -9 -21 -5 -30 4 -11 1 -16 -10 -16 -19 0 -36 37 -28 60
3 8 14 26 26 38 l21 24 3 -32 c2 -17 -2 -37 -7 -44z m-86 -16 c-3 -5 -15 -10
-25 -10 -10 0 -22 5 -25 10 -4 6 7 10 25 10 18 0 29 -4 25 -10z m84 -105 c15
-15 14 -16 -14 -13 -19 2 -35 -3 -45 -14 -8 -10 -34 -20 -57 -24 -39 -6 -43
-5 -43 15 0 11 6 21 14 21 7 0 16 9 19 20 4 16 12 19 57 15 32 -2 59 -10 69
-20z m-159 -581 c0 -9 -7 -14 -17 -12 -25 5 -28 28 -4 28 12 0 21 -6 21 -16z
m220 -1039 c0 -8 5 -15 12 -15 6 0 9 -3 5 -6 -3 -3 -15 0 -26 8 -12 8 -18 18
-14 21 11 12 23 8 23 -8z m-326 -250 c8 -21 -12 -67 -27 -63 -17 6 -21 46 -7
64 16 18 26 18 34 -1z m71 -147 c5 -18 17 -34 25 -34 47 -5 59 -15 53 -49 -5
-29 -2 -34 23 -43 16 -6 40 -20 54 -32 l25 -21 -40 6 c-54 7 -80 -9 -41 -26
22 -11 29 -10 36 1 4 7 15 10 25 6 14 -5 16 -13 11 -39 -4 -17 -9 -41 -10 -53
-5 -35 -16 -47 -32 -33 -16 13 -19 49 -4 49 6 0 10 7 10 16 0 13 -7 15 -35 11
-28 -5 -37 -2 -45 14 -6 10 -20 19 -30 19 -16 0 -20 6 -18 33 3 26 -1 32 -17
32 -16 0 -20 -6 -18 -30 2 -24 -2 -31 -17 -31 -17 0 -18 7 -15 76 4 92 26 183
39 170 6 -6 15 -25 21 -42z m-55 28 c0 -15 -29 -30 -39 -20 -3 3 3 12 13 20
24 17 26 17 26 0z m-6 -411 c37 -37 61 -135 33 -135 -36 0 -97 77 -97 122 0
46 26 51 64 13z m706 -456 c0 -10 -5 -21 -12 -25 -7 -4 -8 -3 -4 5 4 6 1 14
-7 17 -9 3 -13 13 -10 25 4 15 8 17 19 8 8 -6 14 -20 14 -30z"/>
<path d="M7398 4342 c-62 -34 -64 -54 -5 -40 23 6 49 17 58 24 8 8 21 14 28
14 20 0 6 25 -15 27 -10 1 -40 -10 -66 -25z"/>
<path d="M7550 4021 c0 -17 -4 -33 -10 -36 -25 -15 -8 -31 37 -33 26 -1 50 -6
53 -12 4 -6 14 -8 23 -5 8 4 26 1 38 -6 21 -11 22 -12 5 -25 -17 -12 -17 -14
-2 -29 20 -20 20 -25 1 -52 -10 -14 -22 -20 -31 -16 -18 7 -34 -12 -34 -39 0
-24 23 -23 45 2 10 11 23 20 30 20 7 0 25 11 41 25 45 39 68 30 44 -16 -6 -10
-17 -19 -25 -19 -8 0 -18 -12 -21 -26 -8 -31 11 -46 61 -51 17 -2 58 -6 92 -9
58 -5 62 -4 78 20 14 22 15 30 4 60 -12 32 -11 37 7 51 12 9 31 12 54 8 l35
-6 -29 32 c-17 17 -38 31 -48 31 -27 0 -22 19 8 30 41 16 76 12 126 -15 26
-14 52 -25 58 -25 17 0 11 30 -7 37 -47 18 -58 69 -15 67 15 0 22 5 22 18 0
10 -7 18 -15 18 -8 0 -15 -4 -15 -10 0 -9 -47 -6 -180 12 -79 11 -130 12 -270
5 -61 -3 -91 0 -105 9 -34 24 -55 18 -55 -15z"/>
<path d="M9463 3976 c3 -8 11 -33 17 -55 14 -52 30 -53 30 -3 0 25 -7 45 -18
55 -23 21 -36 22 -29 3z"/>
<path d="M7630 3870 c0 -23 10 -26 28 -8 18 18 15 28 -8 28 -13 0 -20 -7 -20
-20z"/>
<path d="M1695 3851 c-82 -38 -112 -100 -165 -346 -16 -72 -43 -130 -65 -139
-52 -20 -90 8 -54 40 48 43 -4 119 -62 91 -59 -30 -62 -116 -4 -174 28 -28 40
-33 82 -33 77 0 122 41 151 135 7 22 26 93 42 158 38 153 71 207 126 207 13 0
15 -6 11 -27 -3 -16 -17 -80 -30 -143 -47 -219 -45 -269 13 -310 46 -32 126
-28 179 10 23 17 44 37 48 45 8 22 20 18 39 -14 23 -39 64 -61 117 -61 51 0
92 18 138 61 29 27 32 28 45 12 7 -10 14 -23 14 -29 0 -23 49 -44 100 -44 51
0 108 26 139 64 19 23 26 21 71 -24 36 -36 45 -40 90 -40 30 0 68 8 95 21 25
12 48 19 51 17 14 -14 -15 -42 -70 -67 -88 -41 -121 -79 -121 -141 0 -41 5
-54 28 -77 25 -26 34 -28 101 -28 60 0 80 4 103 21 51 38 84 103 108 217 3 15
13 31 23 34 9 4 34 17 54 30 46 28 46 28 50 1 3 -22 8 -23 78 -23 l75 0 12 40
c7 22 22 84 34 138 l21 98 61 -3 c55 -3 62 -5 60 -23 -2 -11 -6 -57 -9 -102
l-7 -83 37 -35 c33 -31 44 -35 88 -35 57 0 129 35 149 71 11 21 12 20 47 -14
90 -85 220 -75 313 25 45 47 73 105 94 192 29 127 15 229 -37 278 -27 25 -37
28 -102 28 -58 0 -80 -5 -121 -28 -90 -49 -159 -171 -183 -323 -13 -87 -34
-119 -78 -119 -63 0 -64 19 -9 265 15 66 29 139 32 163 l6 42 -67 0 c-65 0
-67 0 -80 -32 -8 -18 -20 -60 -26 -93 -21 -105 -21 -105 -90 -105 l-61 0 6 48
c4 26 11 61 15 77 5 17 10 46 12 65 l3 35 -68 3 c-77 3 -97 -6 -97 -48 0 -15
-4 -40 -9 -56 -5 -16 -14 -56 -21 -89 -34 -169 -62 -248 -103 -289 -29 -29
-65 -49 -76 -42 -4 3 0 45 11 93 30 139 37 175 48 228 5 28 14 70 20 95 6 25
13 60 16 78 l7 32 -76 0 c-61 0 -78 -3 -85 -17 -9 -16 -11 -16 -36 0 -42 28
-121 22 -182 -13 -96 -54 -160 -167 -179 -315 -11 -84 -23 -112 -55 -125 -16
-6 -38 -9 -49 -5 -17 5 -21 15 -21 53 0 26 7 79 16 117 8 39 22 104 30 145 8
41 19 90 24 109 5 19 7 38 4 43 -3 4 -36 8 -74 8 -50 0 -73 -4 -85 -16 -15
-15 -17 -15 -34 0 -24 22 -109 21 -163 -3 -51 -22 -106 -78 -140 -141 -31 -60
-44 -101 -58 -187 -15 -93 -38 -125 -89 -121 l-36 3 0 55 c0 30 6 82 14 115 7
33 17 79 22 103 5 23 13 61 19 85 5 23 11 56 12 72 l3 30 -95 2 c-75 2 -103
-1 -135 -16z m2409 -63 c20 -29 20 -85 0 -184 -34 -166 -106 -252 -166 -197
-40 36 -11 227 49 331 42 72 88 91 117 50z m-1758 -12 c9 -36 -40 -277 -65
-325 -26 -48 -95 -67 -122 -34 -35 42 2 248 59 323 37 49 52 59 89 60 26 0 34
-5 39 -24z m605 8 c10 -12 10 -25 1 -65 -7 -27 -17 -73 -23 -101 -35 -169 -63
-218 -126 -218 -40 0 -53 21 -53 89 0 153 79 311 155 311 18 0 38 -7 46 -16z
m-115 -586 c-3 -13 -6 -30 -6 -39 0 -18 -44 -69 -59 -69 -15 0 -41 30 -41 47
0 22 67 83 92 83 16 0 19 -5 14 -22z"/>
<path d="M8200 3850 c0 -5 5 -10 10 -10 6 0 10 5 10 10 0 6 -4 10 -10 10 -5 0
-10 -4 -10 -10z"/>
<path d="M7695 3702 c-11 -11 -4 -34 9 -29 7 3 18 1 22 -3 12 -12 39 5 30 18
-7 11 -53 22 -61 14z"/>
<path d="M7793 3663 c-19 -3 -33 -10 -33 -18 0 -20 30 -27 46 -10 9 8 22 15
30 15 8 0 14 5 14 10 0 6 -6 9 -12 8 -7 0 -28 -3 -45 -5z"/>
<path d="M7805 3141 c-3 -5 54 -68 127 -140 97 -96 139 -131 157 -131 24 0 24
0 5 21 -10 12 -52 54 -92 93 -41 39 -79 77 -85 84 -26 28 -91 82 -100 82 -3 0
-8 -4 -12 -9z"/>
<path d="M7645 2980 c-4 -12 -2 -27 3 -32 7 -7 12 -3 17 12 4 12 2 27 -3 32
-7 7 -12 3 -17 -12z"/>
<path d="M7434 2925 c-7 -16 73 -98 87 -89 5 3 9 20 9 39 0 19 5 37 11 41 19
11 -12 24 -59 24 -28 0 -45 -5 -48 -15z"/>
<path d="M7580 2926 c0 -9 5 -16 10 -16 6 0 10 4 10 9 0 6 -4 13 -10 16 -5 3
-10 -1 -10 -9z"/>
<path d="M7371 2891 c-18 -5 -27 -18 -36 -53 -13 -53 -5 -78 27 -78 16 0 19 5
16 25 -5 25 5 34 17 15 11 -18 24 -11 40 20 14 28 14 32 -2 55 -19 26 -24 27
-62 16z"/>
<path d="M7377 2688 c-4 -12 -3 -25 2 -28 13 -9 24 -44 22 -72 -4 -41 7 -34
20 14 9 37 9 44 -7 55 -10 7 -13 13 -7 13 6 0 13 9 16 20 4 16 0 20 -18 20
-15 0 -25 -7 -28 -22z"/>
<path d="M7485 2640 c-4 -6 -3 -16 3 -22 13 -13 23 4 13 21 -7 10 -10 10 -16
1z"/>
<path d="M7501 2078 c9 -7 19 -20 23 -28 3 -8 4 -4 3 10 -1 16 -9 26 -22 28
-18 3 -18 3 -4 -10z"/>
<path d="M7650 1924 c0 -14 4 -23 10 -19 6 3 10 15 10 26 0 10 -4 19 -10 19
-5 0 -10 -12 -10 -26z"/>
<path d="M1165 1350 c3 -5 17 -10 31 -10 16 0 24 -6 25 -17 0 -12 2 -13 6 -5
7 19 -16 42 -44 42 -14 0 -21 -4 -18 -10z"/>
<path d="M1283 1346 c11 -9 17 -27 17 -55 0 -34 -3 -41 -20 -41 -11 0 -20 -4
-20 -9 0 -5 -9 -11 -19 -14 -11 -2 -29 -23 -40 -46 -12 -22 -28 -41 -36 -41
-8 0 -15 -4 -15 -10 0 -5 14 -10 31 -10 25 0 32 6 46 38 34 82 73 97 73 27 0
-34 -4 -45 -16 -45 -8 0 -12 -4 -9 -10 7 -11 85 -14 85 -3 0 3 -7 14 -16 24
-12 14 -14 24 -7 46 19 56 48 33 77 -59 4 -12 16 -18 36 -18 34 0 39 14 10 30
-11 6 -20 17 -20 24 0 17 -34 56 -49 56 -6 0 -11 6 -11 14 0 8 -8 13 -17 12
-22 -1 -38 73 -17 81 29 11 12 23 -33 23 -42 -1 -46 -2 -30 -14z"/>
<path d="M1420 1350 c0 -5 11 -10 24 -10 14 0 28 5 31 10 4 6 -7 10 -24 10
-17 0 -31 -4 -31 -10z"/>
<path d="M2030 1350 c0 -5 5 -10 10 -10 6 0 10 -4 10 -10 0 -5 -9 -10 -21 -10
-11 0 -34 -9 -50 -21 -41 -29 -40 -78 2 -113 17 -14 39 -26 50 -26 10 0 19 -4
19 -10 0 -5 -4 -10 -10 -10 -5 0 -10 -4 -10 -10 0 -11 73 -14 83 -3 4 3 -1 12
-11 19 -15 12 -15 13 8 14 32 1 76 37 89 73 9 24 14 26 31 17 17 -9 20 -21 20
-89 0 -62 -3 -80 -16 -85 -23 -9 -7 -26 24 -26 36 0 60 15 38 23 -9 4 -16 16
-16 27 0 15 7 20 29 20 38 0 81 41 81 77 -1 15 -10 39 -21 53 -19 22 -27 24
-94 21 -66 -2 -75 0 -100 23 -15 14 -39 26 -51 26 -26 0 -30 10 -12 28 9 9 2
12 -35 12 -26 0 -47 -4 -47 -10z m27 -108 c1 -48 0 -52 -21 -52 -30 0 -46 18
-46 51 0 32 25 61 49 57 12 -2 16 -16 18 -56z m93 36 c11 -12 20 -27 20 -33 0
-23 -32 -55 -56 -55 -22 0 -24 4 -24 49 0 45 7 57 32 60 4 1 16 -9 28 -21z
m195 -58 c12 -52 -13 -88 -50 -74 -10 4 -15 20 -15 48 0 49 5 56 36 56 17 0
24 -7 29 -30z"/>
<path d="M1526 1264 c-23 -22 -20 -37 3 -24 33 17 61 12 61 -10 0 -13 -7 -20
-20 -20 -32 0 -70 -30 -70 -55 0 -29 16 -35 91 -35 54 0 74 10 49 25 -5 3 -10
28 -10 55 0 39 -4 52 -22 64 -29 20 -62 20 -82 0z m71 -89 c6 -22 -15 -38 -41
-31 -23 6 -25 9 -16 27 12 21 50 24 57 4z"/>
<path d="M1698 1273 c-19 -5 -25 -23 -8 -23 6 0 10 -22 10 -49 0 -28 -4 -53
-10 -56 -19 -12 -10 -25 18 -25 37 0 44 8 29 31 -10 16 -9 21 3 29 18 11 30 4
30 -19 0 -9 5 -22 12 -29 15 -15 58 -16 58 -2 0 6 -4 10 -8 10 -13 0 -102 86
-102 98 0 6 6 13 13 15 9 4 8 8 -3 16 -8 6 -17 10 -20 10 -3 -1 -13 -3 -22 -6z"/>
<path d="M2460 1273 c-52 -19 -69 -94 -30 -133 21 -21 90 -29 90 -10 0 6 -13
10 -30 10 -19 0 -33 7 -39 19 -13 23 2 31 55 31 29 0 34 3 34 24 0 15 -11 33
-26 45 -28 22 -30 23 -54 14z m40 -27 c0 -2 3 -11 6 -20 5 -13 -1 -16 -30 -16
-38 0 -44 8 -24 28 11 11 48 17 48 8z"/>
<path d="M2589 1251 c-24 -24 -28 -36 -24 -61 8 -46 34 -70 76 -70 20 0 39 6
42 13 3 8 -7 12 -31 12 -30 0 -38 5 -46 26 -14 41 0 79 29 79 18 0 25 -5 25
-20 0 -23 28 -27 36 -6 8 20 -26 56 -54 56 -13 0 -37 -13 -53 -29z"/>
<path d="M2736 1271 c-14 -5 -16 -10 -8 -15 15 -9 16 -116 1 -116 -5 0 -7 -4
-4 -10 8 -13 65 -13 65 -1 0 6 -4 13 -10 16 -15 9 -12 32 5 39 10 3 20 -6 31
-29 12 -26 23 -35 40 -35 13 0 24 2 24 5 0 11 -83 85 -96 85 -17 0 -18 22 -3
37 24 24 -6 40 -45 24z"/>
<path d="M2840 1270 c-12 -8 -12 -10 2 -15 20 -8 41 2 33 16 -8 11 -16 11 -35
-1z"/>
<path d="M2926 1259 c-55 -43 -21 -139 50 -139 68 0 97 80 47 132 -32 33 -61
35 -97 7z m83 -28 c12 -22 5 -72 -12 -83 -40 -26 -81 27 -59 77 14 30 56 34
71 6z"/>
<path d="M1790 1260 c0 -5 9 -10 19 -10 11 0 23 5 26 10 4 6 -5 10 -19 10 -14
0 -26 -4 -26 -10z"/>
<path d="M790 1220 c0 -6 48 -10 125 -10 77 0 125 4 125 10 0 6 -48 10 -125
10 -77 0 -125 -4 -125 -10z"/>
<path d="M3170 1220 c0 -6 48 -10 125 -10 77 0 125 4 125 10 0 6 -48 10 -125
10 -77 0 -125 -4 -125 -10z"/>
</g>
</svg>
